<svg width="82" height="32" viewBox="0 0 82 32" fill="none" xmlns="http://www.w3.org/2000/svg">
<path d="M27.6373 32C27.2275 32 26.8899 31.8794 26.6247 31.6383C26.3595 31.3731 26.2269 31.0356 26.2269 30.6257V20.2098C26.2269 18.4979 25.7808 17.1477 24.8887 16.1591C23.9966 15.1465 22.8513 14.6401 21.4529 14.6401C19.958 14.6401 18.7284 15.1465 17.7639 16.1591C16.8236 17.1477 16.3655 18.4738 16.3896 20.1374H13.8941C13.9182 18.522 14.2678 17.0995 14.9429 15.8698C15.6181 14.6401 16.5463 13.6878 17.7278 13.0127C18.9092 12.3376 20.2474 12 21.7422 12C23.1648 12 24.4185 12.3376 25.5035 13.0127C26.6126 13.6878 27.4686 14.6401 28.0713 15.8698C28.6982 17.0995 29.0117 18.5461 29.0117 20.2098V30.6257C29.0117 31.0356 28.8791 31.3731 28.6138 31.6383C28.3727 31.8794 28.0472 32 27.6373 32ZM2.32089 32C1.88689 32 1.53728 31.8794 1.27206 31.6383C1.03095 31.3731 0.9104 31.0356 0.9104 30.6257V13.6275C0.9104 13.2176 1.03095 12.88 1.27206 12.6148C1.53728 12.3496 1.88689 12.217 2.32089 12.217C2.73077 12.217 3.05627 12.3496 3.29738 12.6148C3.5626 12.88 3.69521 13.2176 3.69521 13.6275V30.6257C3.69521 31.0356 3.5626 31.3731 3.29738 31.6383C3.05627 31.8794 2.73077 32 2.32089 32ZM15.0153 32C14.6054 32 14.2678 31.8794 14.0026 31.6383C13.7374 31.3731 13.6048 31.0356 13.6048 30.6257V20.2098C13.6048 18.4979 13.1587 17.1477 12.2666 16.1591C11.3745 15.1465 10.2293 14.6401 8.83083 14.6401C7.33596 14.6401 6.1063 15.1344 5.14187 16.123C4.17743 17.0874 3.69521 18.3532 3.69521 19.9204H1.70606C1.75428 18.3773 2.09184 17.0151 2.71872 15.8336C3.36971 14.6281 4.24976 13.6878 5.35886 13.0127C6.46796 12.3376 7.72173 12 9.12016 12C10.5427 12 11.7965 12.3376 12.8815 13.0127C13.9906 13.6878 14.8465 14.6401 15.4493 15.8698C16.0762 17.0995 16.3896 18.5461 16.3896 20.2098V30.6257C16.3896 31.0356 16.257 31.3731 15.9918 31.6383C15.7507 31.8794 15.4252 32 15.0153 32Z" fill="#0151FD"/>
<g clip-path="url(#clip0_720_16377)">
<path d="M44.4564 21.5112C44.5419 21.5927 44.6104 21.6904 44.6579 21.7986C44.7054 21.9067 44.7311 22.0232 44.7334 22.1413C44.7357 22.2594 44.7146 22.3768 44.6713 22.4867C44.628 22.5966 44.5634 22.6969 44.4811 22.7817C44.3989 22.8665 44.3007 22.9342 44.1922 22.9809C44.0837 23.0276 43.967 23.0523 43.8489 23.0537C43.7308 23.0551 43.6135 23.0331 43.504 22.989C43.3944 22.9448 43.2946 22.8794 43.2105 22.7965C43.1813 22.7683 43.1508 22.7414 43.1192 22.716C42.9496 22.5853 42.7617 22.4803 42.5615 22.4045C42.156 22.2434 41.6664 22.1539 41.1481 22.1539C40.33 22.1539 39.5969 22.3785 39.1771 22.7169C39.144 22.7437 39.1136 22.7697 39.0858 22.7965C39.0016 22.8794 38.9019 22.9448 38.7923 22.989C38.6827 23.0331 38.5655 23.0551 38.4474 23.0537C38.3293 23.0523 38.2126 23.0276 38.1041 22.9809C37.9956 22.9342 37.8974 22.8665 37.8151 22.7817C37.7329 22.6969 37.6683 22.5966 37.625 22.4867C37.5817 22.3768 37.5606 22.2594 37.5629 22.1413C37.5652 22.0232 37.5909 21.9067 37.6384 21.7986C37.6859 21.6904 37.7544 21.5927 37.8398 21.5112C37.9079 21.4458 37.9795 21.3823 38.0547 21.3214C38.8155 20.7101 39.9442 20.3636 41.1481 20.3636C41.8884 20.3636 42.6018 20.4943 43.2212 20.7396C43.6061 20.8918 43.9507 21.0878 44.2416 21.3214C44.3168 21.3823 44.3884 21.4458 44.4564 21.5112Z" fill="#0151FD"/>
<path d="M46.7094 19.1902C46.7939 19.2735 46.861 19.3729 46.9067 19.4824C46.9524 19.5919 46.9759 19.7094 46.9758 19.8281C46.9757 19.9468 46.952 20.0643 46.9061 20.1737C46.8601 20.2832 46.7929 20.3824 46.7083 20.4656C46.6236 20.5488 46.5233 20.6144 46.4131 20.6584C46.3029 20.7025 46.185 20.7242 46.0663 20.7223C45.9477 20.7204 45.8306 20.6949 45.7218 20.6473C45.6131 20.5997 45.5149 20.531 45.433 20.4451C45.3443 20.3554 45.2511 20.2703 45.1537 20.19C44.9386 20.0153 44.7089 19.8593 44.4672 19.7237C44.2003 19.5736 43.9212 19.4463 43.6329 19.3432C43.3247 19.2306 43.0085 19.1414 42.6868 19.0765C42.3512 19.0071 42.0111 18.9614 41.6691 18.9395C41.1495 18.9054 40.6278 18.9228 40.1116 18.9915C39.7785 19.0365 39.449 19.1044 39.1252 19.1947C38.8193 19.2813 38.5201 19.3902 38.2301 19.5205C37.9643 19.6421 37.7086 19.7849 37.4657 19.9474C37.3542 20.0229 37.2464 20.1035 37.1425 20.1891C37.0452 20.2697 36.952 20.3551 36.8633 20.4451C36.7813 20.531 36.6832 20.5997 36.5744 20.6473C36.4657 20.6949 36.3486 20.7204 36.2299 20.7223C36.1112 20.7242 35.9934 20.7025 35.8832 20.6584C35.773 20.6144 35.6726 20.5488 35.588 20.4656C35.5034 20.3824 35.4361 20.2832 35.3902 20.1737C35.3443 20.0643 35.3205 19.9468 35.3204 19.8281C35.3203 19.7094 35.3438 19.5919 35.3896 19.4824C35.4353 19.3729 35.5024 19.2735 35.5868 19.1902C35.7166 19.0586 35.8545 18.9324 36.0004 18.8107C36.4537 18.4402 36.9539 18.1311 37.488 17.8914C37.8601 17.7215 38.245 17.5811 38.6392 17.4716C39.044 17.3573 39.4565 17.2723 39.8735 17.2174C40.296 17.1602 40.7218 17.1318 41.1481 17.1323C41.5744 17.1326 42.0002 17.161 42.4228 17.2174C42.8399 17.2735 43.2526 17.3584 43.658 17.4716C44.0512 17.5831 44.4356 17.7234 44.8082 17.8914C45.1664 18.055 45.5106 18.2475 45.8376 18.4669C46.1511 18.6789 46.4431 18.9212 46.7094 19.1902Z" fill="#0151FD"/>
<path d="M48.5282 16.982C48.6788 17.16 48.754 17.3897 48.7379 17.6223C48.7218 17.8549 48.6155 18.072 48.4417 18.2274C48.268 18.3829 48.0404 18.4644 47.8075 18.4547C47.5746 18.4449 47.3546 18.3447 47.1945 18.1752C47.0655 18.0314 46.9292 17.8943 46.7863 17.7644C46.6374 17.6287 46.4821 17.5002 46.3208 17.3795C45.978 17.126 45.6142 16.9023 45.2333 16.7108C44.8281 16.5076 44.4065 16.339 43.973 16.2069C43.5218 16.0665 43.0603 15.9617 42.5927 15.8936C42.1144 15.8231 41.6315 15.7884 41.148 15.7898C40.6646 15.7897 40.1817 15.8247 39.7033 15.8945C39.236 15.9641 38.7746 16.0688 38.3231 16.2078C37.8906 16.3425 37.4695 16.5113 37.0637 16.7126C36.8697 16.8097 36.6801 16.9151 36.4953 17.0286C36.317 17.1379 36.1437 17.2553 35.9761 17.3804C35.8149 17.5011 35.6595 17.6296 35.5107 17.7653C35.3674 17.8954 35.2308 18.0329 35.1016 18.177C34.9426 18.3513 34.7212 18.4558 34.4855 18.4678C34.2498 18.4797 34.019 18.3981 33.8432 18.2407C33.6674 18.0833 33.5609 17.8628 33.5468 17.6273C33.5327 17.3918 33.6121 17.1602 33.7679 16.9829C34.1117 16.6017 34.4918 16.2548 34.9029 15.9473C35.5507 15.4669 36.2585 15.073 37.0082 14.7756C37.5265 14.5675 38.0608 14.4017 38.6059 14.2797C39.1606 14.1538 39.724 14.0703 40.2914 14.03C41.1468 13.968 42.0064 13.9995 42.855 14.124C43.4132 14.2069 43.9644 14.332 44.5038 14.4981C45.0295 14.6618 45.5413 14.8671 46.0344 15.1122C46.5105 15.351 46.9651 15.6304 47.3932 15.9473C47.8056 16.2535 48.1862 16.6005 48.5291 16.9829L48.5282 16.982ZM42.9382 25.0631C42.9382 25.5379 42.7496 25.9932 42.4139 26.3289C42.0782 26.6647 41.6228 26.8533 41.148 26.8533C40.6732 26.8533 40.2179 26.6647 39.8822 26.3289C39.5464 25.9932 39.3578 25.5379 39.3578 25.0631C39.3578 24.5883 39.5464 24.1329 39.8822 23.7972C40.2179 23.4615 40.6732 23.2728 41.148 23.2728C41.6228 23.2728 42.0782 23.4615 42.4139 23.7972C42.7496 24.1329 42.9382 24.5883 42.9382 25.0631Z" fill="#0151FD"/>
<path fill-rule="evenodd" clip-rule="evenodd" d="M41.1481 30.2098C46.5858 30.2098 50.9942 25.8014 50.9942 20.3637C50.9942 14.9259 46.5858 10.5175 41.1481 10.5175C35.7103 10.5175 31.3019 14.9259 31.3019 20.3637C31.3019 25.8014 35.7103 30.2098 41.1481 30.2098ZM41.1481 32C47.5749 32 52.7844 26.7905 52.7844 20.3637C52.7844 13.9368 47.5749 8.72729 41.1481 8.72729C34.7212 8.72729 29.5117 13.9368 29.5117 20.3637C29.5117 26.7905 34.7212 32 41.1481 32Z" fill="#0151FD"/>
<path d="M52.7844 20.3637V13.0909" stroke="#0151FD" stroke-width="3.2"/>
</g>
<rect x="49.8754" width="2.90909" height="14.5455" rx="1.45455" fill="#0151FD"/>
<path d="M80.0114 32C79.6015 32 79.2639 31.8794 78.9987 31.6383C78.7335 31.3731 78.6009 31.0356 78.6009 30.6257V20.2098C78.6009 18.4979 78.1548 17.1477 77.2627 16.1591C76.3706 15.1465 75.2253 14.6401 73.8269 14.6401C72.332 14.6401 71.1024 15.1465 70.1379 16.1591C69.1976 17.1477 68.7395 18.4738 68.7636 20.1374H66.2681C66.2923 18.522 66.6419 17.0995 67.317 15.8698C67.9921 14.6401 68.9203 13.6878 70.1018 13.0127C71.2832 12.3376 72.6214 12 74.1162 12C75.5388 12 76.7926 12.3376 77.8776 13.0127C78.9867 13.6878 79.8426 14.6401 80.4454 15.8698C81.0722 17.0995 81.3857 18.5461 81.3857 20.2098V30.6257C81.3857 31.0356 81.2531 31.3731 80.9879 31.6383C80.7467 31.8794 80.4213 32 80.0114 32ZM54.6949 32C54.2609 32 53.9113 31.8794 53.6461 31.6383C53.405 31.3731 53.2844 31.0356 53.2844 30.6257V13.6275C53.2844 13.2176 53.405 12.88 53.6461 12.6148C53.9113 12.3496 54.2609 12.217 54.6949 12.217C55.1048 12.217 55.4303 12.3496 55.6714 12.6148C55.9366 12.88 56.0692 13.2176 56.0692 13.6275V30.6257C56.0692 31.0356 55.9366 31.3731 55.6714 31.6383C55.4303 31.8794 55.1048 32 54.6949 32ZM67.3893 32C66.9794 32 66.6419 31.8794 66.3766 31.6383C66.1114 31.3731 65.9788 31.0356 65.9788 30.6257V20.2098C65.9788 18.4979 65.5328 17.1477 64.6407 16.1591C63.7486 15.1465 62.6033 14.6401 61.2049 14.6401C59.71 14.6401 58.4803 15.1344 57.5159 16.123C56.5515 17.0874 56.0692 18.3532 56.0692 19.9204H54.0801C54.1283 18.3773 54.4659 17.0151 55.0927 15.8336C55.7437 14.6281 56.6238 13.6878 57.7329 13.0127C58.842 12.3376 60.0958 12 61.4942 12C62.9167 12 64.1705 12.3376 65.2555 13.0127C66.3646 13.6878 67.2205 14.6401 67.8233 15.8698C68.4502 17.0995 68.7636 18.5461 68.7636 20.2098V30.6257C68.7636 31.0356 68.631 31.3731 68.3658 31.6383C68.1247 31.8794 67.7992 32 67.3893 32Z" fill="#0151FD"/>
<defs>
<clipPath id="clip0_720_16377">
<rect width="23.2727" height="23.2727" fill="white" transform="translate(29.5117 8.72729)"/>
</clipPath>
</defs>
</svg>
