<svg width="145" height="144" viewBox="0 0 145 144" fill="none" xmlns="http://www.w3.org/2000/svg">
<circle cx="72.5" cy="72" r="62" fill="#0151FD" stroke="#F0F5FF" stroke-width="20"/>
<path d="M70.7082 88.6407C69.313 87.521 56.357 74.9218 56.2122 74.784C55.64 74.2118 55.2797 73.6184 55.1808 73.0745C55.0784 72.5093 55.2515 72.0148 55.7107 71.5557C56.1381 71.1283 56.6608 70.9022 57.2224 70.9022C57.9077 70.9022 58.6106 71.2272 59.1969 71.817L65.0709 77.4614C65.1733 77.5603 65.3075 77.6098 65.4382 77.6098C65.576 77.6098 65.7102 77.5568 65.8126 77.4544C66.0175 77.2495 66.0175 76.9175 65.8161 76.7126L56.4383 67.0274C55.4987 66.0879 55.0572 64.6503 56.1734 63.5341C56.6008 63.1068 57.1235 62.8807 57.6851 62.8807C58.3704 62.8807 59.0733 63.2057 59.6596 63.7955L69.2529 73.1487C69.3554 73.2476 69.4896 73.3005 69.6238 73.3005C69.758 73.3005 69.8958 73.2476 69.9982 73.1451C70.2031 72.9403 70.2066 72.6082 70.0017 72.3998L58.4799 60.5883C57.9465 60.055 57.6251 59.4157 57.5686 58.794C57.5156 58.1617 57.7381 57.5754 58.215 57.0986C58.6423 56.6712 59.1651 56.4451 59.7267 56.4451C60.412 56.4451 61.1149 56.7701 61.7012 57.3564L73.4527 68.8147C73.5551 68.9136 73.6893 68.9666 73.8235 68.9666C73.9578 68.9666 74.0955 68.9136 74.1979 68.8112C74.4028 68.6063 74.4063 68.2743 74.2015 68.0659L65.6678 59.2956C65.1309 58.7587 64.8095 58.1229 64.7565 57.5012C64.7035 56.869 64.926 56.2826 65.4029 55.8058C65.8303 55.3784 66.353 55.1523 66.9146 55.1523C67.5999 55.1523 68.3028 55.4773 68.8891 56.0672C72.0186 59.1401 80.1885 67.1758 80.464 67.4725C81.513 68.1966 81.725 67.1016 81.7779 66.3917C81.838 65.5651 80.8914 62.6794 81.4424 60.0832C82.3678 56.6323 85.0346 57.1975 85.0946 57.2257C86.5569 57.911 86.2779 58.9353 85.7587 60.9945L85.7057 61.4007C85.1617 64.0922 88.8988 72.0678 89.1743 72.6648C90.6401 75.872 92.3285 82.3746 86.7371 87.966C80.6088 94.0943 73.0217 90.9542 70.7082 88.6407Z" fill="url(#paint0_radial_3315_12328)"/>
<path d="M78.5714 92.0815C74.8132 92.0815 71.6166 90.2837 70.3556 89.0368C69.2218 88.1114 62.0656 81.2025 56.2376 75.5475C56.0009 75.3179 55.8632 75.1872 55.849 75.1696C55.1885 74.5091 54.7788 73.8203 54.6622 73.1704C54.528 72.4322 54.7576 71.7646 55.3369 71.1818C55.8667 70.652 56.5166 70.3729 57.223 70.3729C58.0531 70.3729 58.8867 70.7544 59.5719 71.4432L65.4388 77.0805L56.0574 67.3953C54.9766 66.3145 54.4326 64.5237 55.7996 63.1603C56.3294 62.6304 56.9793 62.3514 57.6858 62.3514C58.5158 62.3514 59.3494 62.7329 60.0346 63.4216L69.6209 72.7677L58.1025 60.9597C57.4879 60.3451 57.11 59.5928 57.0429 58.844C56.9758 58.0457 57.2513 57.3145 57.8412 56.7247C58.371 56.1949 59.0209 55.9158 59.7273 55.9158C60.5539 55.9158 61.3874 56.2938 62.0762 56.9825L73.8242 68.4373L65.2905 59.667C64.6723 59.0488 64.2944 58.2965 64.2308 57.5477C64.1637 56.7529 64.4392 56.0218 65.0291 55.4319C65.5589 54.9021 66.2088 54.623 66.9153 54.623C67.7453 54.623 68.5789 55.0045 69.2641 55.6933L71.8108 58.1905C76.3496 62.641 80.1432 66.3675 80.5494 66.7842C80.7472 66.9432 81.005 67.0032 81.1145 66.9503C81.1852 66.9149 81.2629 66.7525 81.2487 66.4098C81.2275 65.8094 81.1428 65.0641 81.0545 64.2764C80.8779 62.694 80.6942 61.0551 80.9238 59.9743C81.4253 58.0987 82.4108 57.304 83.1455 56.9613C84.1557 56.4951 85.1341 56.6576 85.3213 56.7459C87.158 57.6077 86.7942 59.0488 86.2927 61.048L86.2821 61.0975L86.2255 61.5107C85.8582 63.3192 87.7444 68.3172 89.6305 72.3898L89.6588 72.4463C90.9198 75.2014 93.1909 82.2692 87.1156 88.3445C84.3217 91.1314 81.2982 92.0815 78.5714 92.0815ZM57.223 71.4326C56.8062 71.4326 56.4106 71.6056 56.0857 71.9306C55.7501 72.2661 55.6336 72.5911 55.7042 72.9796C55.7819 73.407 56.0963 73.9157 56.5873 74.4102C56.5908 74.4137 56.7321 74.5515 56.9758 74.7846C65.2481 82.8132 70.2426 87.5851 71.0408 88.2279L71.0832 88.2668C73.033 90.2165 80.2774 93.6781 86.3633 87.5922C91.9688 81.9866 89.8601 75.4416 88.691 72.8843L88.6663 72.8313C87.4512 70.2104 84.6891 63.8526 85.18 61.3165L85.2613 60.7867C85.8052 58.625 85.837 58.1729 84.9151 57.7278C84.6431 57.6784 82.6934 57.4417 81.9481 60.2215C81.7609 61.1081 81.941 62.7293 82.1 64.1599C82.1918 64.9687 82.2766 65.7352 82.2978 66.3745C82.3331 67.3812 81.8563 67.7662 81.5666 67.9075C80.9768 68.1936 80.2739 67.9499 79.8359 67.5825L79.79 67.5401C79.5745 67.307 74.4493 62.2808 71.0585 58.9535L68.5083 56.4492C67.6394 55.5767 66.5197 55.4319 65.7673 56.1843C65.4 56.5516 65.234 56.9825 65.2728 57.4594C65.3152 57.9574 65.5836 58.4766 66.0322 58.9252L74.5836 67.6955C74.9862 68.1053 74.9862 68.7764 74.5765 69.1861C74.1844 69.5782 73.4921 69.5852 73.0895 69.1967L61.3309 57.7349C60.462 56.866 59.3388 56.7211 58.59 57.4735C58.2226 57.8408 58.0566 58.2718 58.0955 58.7486C58.1414 59.2466 58.4098 59.7694 58.8549 60.2109L70.3803 72.0295C70.7865 72.4392 70.783 73.1103 70.3732 73.5201C69.9812 73.9121 69.2889 73.9192 68.8862 73.5307L59.2893 64.174C58.4204 63.298 57.2972 63.1567 56.5484 63.9091C55.6336 64.8239 56.121 65.9577 56.8133 66.6536L66.1982 76.3458C66.6009 76.7555 66.5974 77.4231 66.1876 77.8293C65.792 78.2249 65.1068 78.2284 64.7041 77.8434L58.8302 72.199C58.3357 71.701 57.767 71.4326 57.223 71.4326Z" fill="#EDA600"/>
<path d="M79.6208 67.1299C77.6816 71.0894 77.9324 76.6314 80.8429 81.0784C81.1714 81.6788 81.733 81.3856 81.4469 80.7675C77.9324 73.2476 81.6165 67.8292 81.6165 67.8292L79.6208 67.1299Z" fill="#EDA600"/>
<path d="M71.9941 52.2808C73.0609 52.0017 74.1982 52.0264 75.3038 52.2843C76.4023 52.5492 77.5008 53.1073 78.3167 54.0186C79.115 54.9228 79.6059 56.0213 79.7719 57.1728C79.9274 58.3137 79.7825 59.4899 79.2421 60.4648C79.1785 59.3698 78.9878 58.3631 78.6664 57.4342C78.5004 56.9715 78.3061 56.5299 78.0694 56.1131C77.8363 55.6999 77.5608 55.2902 77.2676 54.9546C76.6707 54.2658 75.8618 53.7289 74.9541 53.3121C74.0428 52.8812 73.0503 52.5633 71.9941 52.2808Z" fill="#B0BEC5"/>
<path d="M72.2891 55.629C72.8789 55.2546 73.6172 55.1769 74.313 55.3005C75.0159 55.4242 75.687 55.7738 76.2168 56.2577C76.7431 56.7487 77.1175 57.3668 77.3506 58.0097C77.4637 58.3311 77.5202 58.6702 77.5732 58.9987C77.5908 59.3378 77.5908 59.6769 77.5378 60.016C77.2941 59.7581 77.1034 59.5003 76.9232 59.2495C76.7148 59.0128 76.5524 58.762 76.3652 58.5324C75.9978 58.0768 75.6411 57.6635 75.2561 57.2962C74.8605 56.9394 74.4437 56.6251 73.9598 56.3531C73.4794 56.0741 72.939 55.8409 72.2891 55.629Z" fill="#90A4AE"/>
<path d="M52.0946 78.0088C52.5927 78.9837 53.1119 79.8879 53.7159 80.6862C54.3164 81.4844 55.0051 82.1626 55.8069 82.6041C56.1955 82.8196 56.6582 83.0068 57.1103 83.1481C57.5659 83.2929 58.0393 83.3918 58.5267 83.4589C59.5016 83.579 60.5259 83.5578 61.6103 83.3918C60.7696 84.1229 59.6464 84.5115 58.502 84.5963C57.3434 84.674 56.1672 84.4232 55.1146 83.8298C54.055 83.2258 53.2779 82.265 52.7905 81.2442C52.303 80.2164 52.0417 79.1108 52.0946 78.0088Z" fill="#B0BEC5"/>
<path d="M55.4319 77.5957C55.7745 78.1891 56.1136 78.6659 56.4844 79.0827C56.8518 79.4995 57.2474 79.8422 57.6783 80.153C58.1163 80.4532 58.5967 80.7181 59.1194 80.983C59.3808 81.1173 59.6598 81.2232 59.9353 81.3786C60.2215 81.5023 60.5111 81.633 60.8149 81.8202C60.4934 81.9402 60.1649 82.0109 59.8294 82.0639C59.4974 82.078 59.1547 82.0957 58.8157 82.0497C58.1375 81.9579 57.4593 81.7213 56.8659 81.308C56.2831 80.8877 55.7992 80.3049 55.5343 79.6444C55.2658 78.9874 55.1881 78.2527 55.4319 77.5957Z" fill="#90A4AE"/>
<defs>
<radialGradient id="paint0_radial_3315_12328" cx="0" cy="0" r="1" gradientUnits="userSpaceOnUse" gradientTransform="translate(65.2391 64.1134) rotate(-45) scale(32.1452)">
<stop offset="0.3533" stop-color="#FFCA28"/>
<stop offset="0.8723" stop-color="#FFB300"/>
</radialGradient>
</defs>
</svg>
